<svg width="21" height="21" viewBox="0 0 21 21" fill="none" xmlns="http://www.w3.org/2000/svg">
<path d="M7.875 1.75C5.5825 1.75 3.71875 3.61375 3.71875 5.90625C3.71875 8.155 5.4775 9.975 7.77 10.0538C7.84 10.045 7.91 10.045 7.9625 10.0538C7.98 10.0538 7.98875 10.0538 8.00625 10.0538C8.015 10.0538 8.015 10.0538 8.02375 10.0538C10.2638 9.975 12.0225 8.155 12.0312 5.90625C12.0312 3.61375 10.1675 1.75 7.875 1.75Z" fill="#808080"/>
<path d="M12.32 12.3813C9.87878 10.7538 5.89753 10.7538 3.43878 12.3813C2.32753 13.125 1.71503 14.1312 1.71503 15.2075C1.71503 16.2838 2.32753 17.2813 3.43003 18.0163C4.65503 18.8388 6.26503 19.25 7.87503 19.25C9.48503 19.25 11.095 18.8388 12.32 18.0163C13.4225 17.2725 14.035 16.275 14.035 15.19C14.0263 14.1138 13.4225 13.1163 12.32 12.3813Z" fill="#808080"/>
<path d="M17.4913 6.4225C17.6313 8.12 16.4238 9.6075 14.7525 9.80875C14.7438 9.80875 14.7438 9.80875 14.735 9.80875H14.7088C14.6563 9.80875 14.6038 9.80875 14.56 9.82625C13.7113 9.87 12.9325 9.59875 12.3463 9.1C13.2475 8.295 13.7638 7.0875 13.6588 5.775C13.5975 5.06625 13.3525 4.41875 12.985 3.8675C13.3175 3.70125 13.7025 3.59625 14.0963 3.56125C15.8113 3.4125 17.3425 4.69 17.4913 6.4225Z" fill="#808080"/>
<path d="M19.2413 14.5162C19.1713 15.365 18.6288 16.1 17.7188 16.5987C16.8438 17.08 15.7413 17.3075 14.6475 17.2812C15.2775 16.7125 15.645 16.0037 15.715 15.2512C15.8025 14.1662 15.2863 13.125 14.2538 12.2937C13.6675 11.83 12.985 11.4625 12.2413 11.1912C14.175 10.6312 16.6075 11.0075 18.1038 12.215C18.9088 12.8625 19.32 13.6762 19.2413 14.5162Z" fill="#808080"/>
</svg>
