<svg width="21" height="22" viewBox="0 0 21 22" fill="none" xmlns="http://www.w3.org/2000/svg">
<path d="M10.0625 18.875C14.6534 18.875 18.375 15.1534 18.375 10.5625C18.375 5.97163 14.6534 2.25 10.0625 2.25C5.47163 2.25 1.75 5.97163 1.75 10.5625C1.75 15.1534 5.47163 18.875 10.0625 18.875Z" fill="#90A59E"/>
<path d="M18.6375 19.75C18.48 19.75 18.3225 19.6888 18.2087 19.575L16.5812 17.9475C16.345 17.7113 16.345 17.3263 16.5812 17.0813C16.8175 16.845 17.2025 16.845 17.4475 17.0813L19.075 18.7088C19.3112 18.945 19.3112 19.33 19.075 19.575C18.9525 19.6888 18.795 19.75 18.6375 19.75Z" fill="#90A59E"/>
</svg>
